<mxfile host="app.diagrams.net" modified="2023-02-14T23:09:17.775Z" agent="5.0 (Windows NT 10.0; Win64; x64) AppleWebKit/537.36 (KHTML, like Gecko) Chrome/109.0.0.0 Safari/537.36" etag="WbqfElKlD1DvxeMr0CvZ" version="20.8.20" type="github">
  <diagram id="C5RBs43oDa-KdzZeNtuy" name="Page-1">
    <mxGraphModel dx="1434" dy="774" grid="1" gridSize="10" guides="1" tooltips="1" connect="1" arrows="1" fold="1" page="1" pageScale="1" pageWidth="827" pageHeight="1169" math="0" shadow="0">
      <root>
        <mxCell id="WIyWlLk6GJQsqaUBKTNV-0" />
        <mxCell id="WIyWlLk6GJQsqaUBKTNV-1" parent="WIyWlLk6GJQsqaUBKTNV-0" />
        <mxCell id="2MoQ2C0cXwXmk25jdBxl-92" value="" style="rounded=0;whiteSpace=wrap;html=1;" vertex="1" parent="WIyWlLk6GJQsqaUBKTNV-1">
          <mxGeometry x="610" y="20" width="360" height="70" as="geometry" />
        </mxCell>
        <mxCell id="2MoQ2C0cXwXmk25jdBxl-91" value="" style="rounded=0;whiteSpace=wrap;html=1;" vertex="1" parent="WIyWlLk6GJQsqaUBKTNV-1">
          <mxGeometry x="220" y="20" width="360" height="70" as="geometry" />
        </mxCell>
        <mxCell id="2MoQ2C0cXwXmk25jdBxl-3" value="Invoice sebesar 1.000 dibuat" style="swimlane;childLayout=stackLayout;resizeParent=1;resizeParentMax=0;startSize=20;html=1;" vertex="1" parent="WIyWlLk6GJQsqaUBKTNV-1">
          <mxGeometry x="220" y="130" width="360" height="160" as="geometry" />
        </mxCell>
        <mxCell id="2MoQ2C0cXwXmk25jdBxl-4" value="keterangan" style="swimlane;startSize=20;html=1;" vertex="1" parent="2MoQ2C0cXwXmk25jdBxl-3">
          <mxGeometry y="20" width="120" height="140" as="geometry" />
        </mxCell>
        <mxCell id="2MoQ2C0cXwXmk25jdBxl-11" value="pendapatan" style="rounded=0;whiteSpace=wrap;html=1;" vertex="1" parent="2MoQ2C0cXwXmk25jdBxl-4">
          <mxGeometry x="-4.547473508864641e-13" y="80" width="120" height="60" as="geometry" />
        </mxCell>
        <mxCell id="2MoQ2C0cXwXmk25jdBxl-5" value="debit" style="swimlane;startSize=20;html=1;" vertex="1" parent="2MoQ2C0cXwXmk25jdBxl-3">
          <mxGeometry x="120" y="20" width="120" height="140" as="geometry" />
        </mxCell>
        <mxCell id="2MoQ2C0cXwXmk25jdBxl-12" value="1.000" style="rounded=0;whiteSpace=wrap;html=1;" vertex="1" parent="2MoQ2C0cXwXmk25jdBxl-5">
          <mxGeometry x="-4.547473508864641e-13" y="20" width="120" height="60" as="geometry" />
        </mxCell>
        <mxCell id="2MoQ2C0cXwXmk25jdBxl-17" value="" style="rounded=0;whiteSpace=wrap;html=1;" vertex="1" parent="2MoQ2C0cXwXmk25jdBxl-5">
          <mxGeometry x="-4.547473508864641e-13" y="80" width="120" height="60" as="geometry" />
        </mxCell>
        <mxCell id="2MoQ2C0cXwXmk25jdBxl-6" value="kredit" style="swimlane;startSize=20;html=1;" vertex="1" parent="2MoQ2C0cXwXmk25jdBxl-3">
          <mxGeometry x="240" y="20" width="120" height="140" as="geometry" />
        </mxCell>
        <mxCell id="2MoQ2C0cXwXmk25jdBxl-15" value="1.000" style="rounded=0;whiteSpace=wrap;html=1;" vertex="1" parent="2MoQ2C0cXwXmk25jdBxl-6">
          <mxGeometry x="-4.547473508864641e-13" y="80" width="120" height="60" as="geometry" />
        </mxCell>
        <mxCell id="2MoQ2C0cXwXmk25jdBxl-16" value="" style="rounded=0;whiteSpace=wrap;html=1;" vertex="1" parent="2MoQ2C0cXwXmk25jdBxl-6">
          <mxGeometry x="-4.547473508864641e-13" y="20" width="120" height="60" as="geometry" />
        </mxCell>
        <mxCell id="2MoQ2C0cXwXmk25jdBxl-10" value="piutang" style="rounded=0;whiteSpace=wrap;html=1;" vertex="1" parent="WIyWlLk6GJQsqaUBKTNV-1">
          <mxGeometry x="220" y="170" width="120" height="60" as="geometry" />
        </mxCell>
        <mxCell id="2MoQ2C0cXwXmk25jdBxl-18" value="Invoice dibayar 1.000" style="swimlane;childLayout=stackLayout;resizeParent=1;resizeParentMax=0;startSize=20;html=1;" vertex="1" parent="WIyWlLk6GJQsqaUBKTNV-1">
          <mxGeometry x="610" y="320" width="360" height="160" as="geometry" />
        </mxCell>
        <mxCell id="2MoQ2C0cXwXmk25jdBxl-19" value="keterangan" style="swimlane;startSize=20;html=1;" vertex="1" parent="2MoQ2C0cXwXmk25jdBxl-18">
          <mxGeometry y="20" width="120" height="140" as="geometry" />
        </mxCell>
        <mxCell id="2MoQ2C0cXwXmk25jdBxl-20" value="puitang" style="rounded=0;whiteSpace=wrap;html=1;" vertex="1" parent="2MoQ2C0cXwXmk25jdBxl-19">
          <mxGeometry x="-4.547473508864641e-13" y="80" width="120" height="60" as="geometry" />
        </mxCell>
        <mxCell id="2MoQ2C0cXwXmk25jdBxl-27" value="kas" style="rounded=0;whiteSpace=wrap;html=1;" vertex="1" parent="2MoQ2C0cXwXmk25jdBxl-19">
          <mxGeometry x="-4.547473508864641e-13" y="20" width="120" height="60" as="geometry" />
        </mxCell>
        <mxCell id="2MoQ2C0cXwXmk25jdBxl-21" value="debit" style="swimlane;startSize=20;html=1;" vertex="1" parent="2MoQ2C0cXwXmk25jdBxl-18">
          <mxGeometry x="120" y="20" width="120" height="140" as="geometry" />
        </mxCell>
        <mxCell id="2MoQ2C0cXwXmk25jdBxl-22" value="1.000" style="rounded=0;whiteSpace=wrap;html=1;" vertex="1" parent="2MoQ2C0cXwXmk25jdBxl-21">
          <mxGeometry x="-4.547473508864641e-13" y="20" width="120" height="60" as="geometry" />
        </mxCell>
        <mxCell id="2MoQ2C0cXwXmk25jdBxl-23" value="" style="rounded=0;whiteSpace=wrap;html=1;" vertex="1" parent="2MoQ2C0cXwXmk25jdBxl-21">
          <mxGeometry x="-4.547473508864641e-13" y="80" width="120" height="60" as="geometry" />
        </mxCell>
        <mxCell id="2MoQ2C0cXwXmk25jdBxl-24" value="kredit" style="swimlane;startSize=20;html=1;" vertex="1" parent="2MoQ2C0cXwXmk25jdBxl-18">
          <mxGeometry x="240" y="20" width="120" height="140" as="geometry" />
        </mxCell>
        <mxCell id="2MoQ2C0cXwXmk25jdBxl-25" value="1.000" style="rounded=0;whiteSpace=wrap;html=1;" vertex="1" parent="2MoQ2C0cXwXmk25jdBxl-24">
          <mxGeometry x="-4.547473508864641e-13" y="80" width="120" height="60" as="geometry" />
        </mxCell>
        <mxCell id="2MoQ2C0cXwXmk25jdBxl-26" value="" style="rounded=0;whiteSpace=wrap;html=1;" vertex="1" parent="2MoQ2C0cXwXmk25jdBxl-24">
          <mxGeometry x="-4.547473508864641e-13" y="20" width="120" height="60" as="geometry" />
        </mxCell>
        <mxCell id="2MoQ2C0cXwXmk25jdBxl-53" value="Invoice dibayar 500" style="swimlane;childLayout=stackLayout;resizeParent=1;resizeParentMax=0;startSize=20;html=1;" vertex="1" parent="WIyWlLk6GJQsqaUBKTNV-1">
          <mxGeometry x="220" y="320" width="360" height="160" as="geometry" />
        </mxCell>
        <mxCell id="2MoQ2C0cXwXmk25jdBxl-54" value="keterangan" style="swimlane;startSize=20;html=1;" vertex="1" parent="2MoQ2C0cXwXmk25jdBxl-53">
          <mxGeometry y="20" width="120" height="140" as="geometry" />
        </mxCell>
        <mxCell id="2MoQ2C0cXwXmk25jdBxl-55" value="piutang" style="rounded=0;whiteSpace=wrap;html=1;" vertex="1" parent="2MoQ2C0cXwXmk25jdBxl-54">
          <mxGeometry x="-4.547473508864641e-13" y="80" width="120" height="60" as="geometry" />
        </mxCell>
        <mxCell id="2MoQ2C0cXwXmk25jdBxl-62" value="kas" style="rounded=0;whiteSpace=wrap;html=1;" vertex="1" parent="2MoQ2C0cXwXmk25jdBxl-54">
          <mxGeometry x="-4.547473508864641e-13" y="20" width="120" height="60" as="geometry" />
        </mxCell>
        <mxCell id="2MoQ2C0cXwXmk25jdBxl-56" value="debit" style="swimlane;startSize=20;html=1;" vertex="1" parent="2MoQ2C0cXwXmk25jdBxl-53">
          <mxGeometry x="120" y="20" width="120" height="140" as="geometry" />
        </mxCell>
        <mxCell id="2MoQ2C0cXwXmk25jdBxl-57" value="500" style="rounded=0;whiteSpace=wrap;html=1;" vertex="1" parent="2MoQ2C0cXwXmk25jdBxl-56">
          <mxGeometry x="-4.547473508864641e-13" y="20" width="120" height="60" as="geometry" />
        </mxCell>
        <mxCell id="2MoQ2C0cXwXmk25jdBxl-58" value="" style="rounded=0;whiteSpace=wrap;html=1;" vertex="1" parent="2MoQ2C0cXwXmk25jdBxl-56">
          <mxGeometry x="-4.547473508864641e-13" y="80" width="120" height="60" as="geometry" />
        </mxCell>
        <mxCell id="2MoQ2C0cXwXmk25jdBxl-59" value="kredit" style="swimlane;startSize=20;html=1;" vertex="1" parent="2MoQ2C0cXwXmk25jdBxl-53">
          <mxGeometry x="240" y="20" width="120" height="140" as="geometry" />
        </mxCell>
        <mxCell id="2MoQ2C0cXwXmk25jdBxl-60" value="500" style="rounded=0;whiteSpace=wrap;html=1;" vertex="1" parent="2MoQ2C0cXwXmk25jdBxl-59">
          <mxGeometry x="-4.547473508864641e-13" y="80" width="120" height="60" as="geometry" />
        </mxCell>
        <mxCell id="2MoQ2C0cXwXmk25jdBxl-61" value="" style="rounded=0;whiteSpace=wrap;html=1;" vertex="1" parent="2MoQ2C0cXwXmk25jdBxl-59">
          <mxGeometry x="-4.547473508864641e-13" y="20" width="120" height="60" as="geometry" />
        </mxCell>
        <mxCell id="2MoQ2C0cXwXmk25jdBxl-63" style="edgeStyle=orthogonalEdgeStyle;rounded=0;orthogonalLoop=1;jettySize=auto;html=1;exitX=0.5;exitY=1;exitDx=0;exitDy=0;entryX=0.5;entryY=0;entryDx=0;entryDy=0;" edge="1" parent="WIyWlLk6GJQsqaUBKTNV-1" source="2MoQ2C0cXwXmk25jdBxl-17" target="2MoQ2C0cXwXmk25jdBxl-53">
          <mxGeometry relative="1" as="geometry" />
        </mxCell>
        <mxCell id="2MoQ2C0cXwXmk25jdBxl-64" value="Invoice dibayar 500" style="swimlane;childLayout=stackLayout;resizeParent=1;resizeParentMax=0;startSize=20;html=1;" vertex="1" parent="WIyWlLk6GJQsqaUBKTNV-1">
          <mxGeometry x="220" y="500" width="360" height="160" as="geometry" />
        </mxCell>
        <mxCell id="2MoQ2C0cXwXmk25jdBxl-65" value="keterangan" style="swimlane;startSize=20;html=1;" vertex="1" parent="2MoQ2C0cXwXmk25jdBxl-64">
          <mxGeometry y="20" width="120" height="140" as="geometry" />
        </mxCell>
        <mxCell id="2MoQ2C0cXwXmk25jdBxl-66" value="piutang" style="rounded=0;whiteSpace=wrap;html=1;" vertex="1" parent="2MoQ2C0cXwXmk25jdBxl-65">
          <mxGeometry x="-4.547473508864641e-13" y="80" width="120" height="60" as="geometry" />
        </mxCell>
        <mxCell id="2MoQ2C0cXwXmk25jdBxl-67" value="kas" style="rounded=0;whiteSpace=wrap;html=1;" vertex="1" parent="2MoQ2C0cXwXmk25jdBxl-65">
          <mxGeometry x="-4.547473508864641e-13" y="20" width="120" height="60" as="geometry" />
        </mxCell>
        <mxCell id="2MoQ2C0cXwXmk25jdBxl-68" value="debit" style="swimlane;startSize=20;html=1;" vertex="1" parent="2MoQ2C0cXwXmk25jdBxl-64">
          <mxGeometry x="120" y="20" width="120" height="140" as="geometry" />
        </mxCell>
        <mxCell id="2MoQ2C0cXwXmk25jdBxl-69" value="500" style="rounded=0;whiteSpace=wrap;html=1;" vertex="1" parent="2MoQ2C0cXwXmk25jdBxl-68">
          <mxGeometry x="-4.547473508864641e-13" y="20" width="120" height="60" as="geometry" />
        </mxCell>
        <mxCell id="2MoQ2C0cXwXmk25jdBxl-70" value="" style="rounded=0;whiteSpace=wrap;html=1;" vertex="1" parent="2MoQ2C0cXwXmk25jdBxl-68">
          <mxGeometry x="-4.547473508864641e-13" y="80" width="120" height="60" as="geometry" />
        </mxCell>
        <mxCell id="2MoQ2C0cXwXmk25jdBxl-71" value="kredit" style="swimlane;startSize=20;html=1;" vertex="1" parent="2MoQ2C0cXwXmk25jdBxl-64">
          <mxGeometry x="240" y="20" width="120" height="140" as="geometry" />
        </mxCell>
        <mxCell id="2MoQ2C0cXwXmk25jdBxl-72" value="500" style="rounded=0;whiteSpace=wrap;html=1;" vertex="1" parent="2MoQ2C0cXwXmk25jdBxl-71">
          <mxGeometry x="-4.547473508864641e-13" y="80" width="120" height="60" as="geometry" />
        </mxCell>
        <mxCell id="2MoQ2C0cXwXmk25jdBxl-73" value="" style="rounded=0;whiteSpace=wrap;html=1;" vertex="1" parent="2MoQ2C0cXwXmk25jdBxl-71">
          <mxGeometry x="-4.547473508864641e-13" y="20" width="120" height="60" as="geometry" />
        </mxCell>
        <mxCell id="2MoQ2C0cXwXmk25jdBxl-74" style="edgeStyle=orthogonalEdgeStyle;rounded=0;orthogonalLoop=1;jettySize=auto;html=1;exitX=0.5;exitY=1;exitDx=0;exitDy=0;entryX=0.5;entryY=0;entryDx=0;entryDy=0;" edge="1" parent="WIyWlLk6GJQsqaUBKTNV-1" source="2MoQ2C0cXwXmk25jdBxl-58" target="2MoQ2C0cXwXmk25jdBxl-64">
          <mxGeometry relative="1" as="geometry" />
        </mxCell>
        <mxCell id="2MoQ2C0cXwXmk25jdBxl-75" value="Invoice sebesar 1.000 dibuat" style="swimlane;childLayout=stackLayout;resizeParent=1;resizeParentMax=0;startSize=20;html=1;" vertex="1" parent="WIyWlLk6GJQsqaUBKTNV-1">
          <mxGeometry x="610" y="130" width="360" height="160" as="geometry" />
        </mxCell>
        <mxCell id="2MoQ2C0cXwXmk25jdBxl-76" value="keterangan" style="swimlane;startSize=20;html=1;" vertex="1" parent="2MoQ2C0cXwXmk25jdBxl-75">
          <mxGeometry y="20" width="120" height="140" as="geometry" />
        </mxCell>
        <mxCell id="2MoQ2C0cXwXmk25jdBxl-77" value="pendapatan" style="rounded=0;whiteSpace=wrap;html=1;" vertex="1" parent="2MoQ2C0cXwXmk25jdBxl-76">
          <mxGeometry x="-4.547473508864641e-13" y="80" width="120" height="60" as="geometry" />
        </mxCell>
        <mxCell id="2MoQ2C0cXwXmk25jdBxl-84" value="puitang" style="rounded=0;whiteSpace=wrap;html=1;" vertex="1" parent="2MoQ2C0cXwXmk25jdBxl-76">
          <mxGeometry x="-4.547473508864641e-13" y="20" width="120" height="60" as="geometry" />
        </mxCell>
        <mxCell id="2MoQ2C0cXwXmk25jdBxl-78" value="debit" style="swimlane;startSize=20;html=1;" vertex="1" parent="2MoQ2C0cXwXmk25jdBxl-75">
          <mxGeometry x="120" y="20" width="120" height="140" as="geometry" />
        </mxCell>
        <mxCell id="2MoQ2C0cXwXmk25jdBxl-79" value="1.000" style="rounded=0;whiteSpace=wrap;html=1;" vertex="1" parent="2MoQ2C0cXwXmk25jdBxl-78">
          <mxGeometry x="-4.547473508864641e-13" y="20" width="120" height="60" as="geometry" />
        </mxCell>
        <mxCell id="2MoQ2C0cXwXmk25jdBxl-80" value="" style="rounded=0;whiteSpace=wrap;html=1;" vertex="1" parent="2MoQ2C0cXwXmk25jdBxl-78">
          <mxGeometry x="-4.547473508864641e-13" y="80" width="120" height="60" as="geometry" />
        </mxCell>
        <mxCell id="2MoQ2C0cXwXmk25jdBxl-81" value="kredit" style="swimlane;startSize=20;html=1;" vertex="1" parent="2MoQ2C0cXwXmk25jdBxl-75">
          <mxGeometry x="240" y="20" width="120" height="140" as="geometry" />
        </mxCell>
        <mxCell id="2MoQ2C0cXwXmk25jdBxl-82" value="1.000" style="rounded=0;whiteSpace=wrap;html=1;" vertex="1" parent="2MoQ2C0cXwXmk25jdBxl-81">
          <mxGeometry x="-4.547473508864641e-13" y="80" width="120" height="60" as="geometry" />
        </mxCell>
        <mxCell id="2MoQ2C0cXwXmk25jdBxl-83" value="" style="rounded=0;whiteSpace=wrap;html=1;" vertex="1" parent="2MoQ2C0cXwXmk25jdBxl-81">
          <mxGeometry x="-4.547473508864641e-13" y="20" width="120" height="60" as="geometry" />
        </mxCell>
        <mxCell id="2MoQ2C0cXwXmk25jdBxl-85" style="edgeStyle=orthogonalEdgeStyle;rounded=0;orthogonalLoop=1;jettySize=auto;html=1;exitX=0.5;exitY=1;exitDx=0;exitDy=0;entryX=0.5;entryY=0;entryDx=0;entryDy=0;" edge="1" parent="WIyWlLk6GJQsqaUBKTNV-1" source="2MoQ2C0cXwXmk25jdBxl-78" target="2MoQ2C0cXwXmk25jdBxl-18">
          <mxGeometry relative="1" as="geometry" />
        </mxCell>
        <mxCell id="2MoQ2C0cXwXmk25jdBxl-88" style="edgeStyle=orthogonalEdgeStyle;rounded=0;orthogonalLoop=1;jettySize=auto;html=1;exitX=0.5;exitY=1;exitDx=0;exitDy=0;entryX=0.542;entryY=-0.012;entryDx=0;entryDy=0;entryPerimeter=0;" edge="1" parent="WIyWlLk6GJQsqaUBKTNV-1" source="2MoQ2C0cXwXmk25jdBxl-86" target="2MoQ2C0cXwXmk25jdBxl-3">
          <mxGeometry relative="1" as="geometry" />
        </mxCell>
        <mxCell id="2MoQ2C0cXwXmk25jdBxl-86" value="&lt;h1&gt;bayar setengah&lt;/h1&gt;&lt;p&gt;bayar dicicil&lt;/p&gt;" style="text;html=1;strokeColor=none;fillColor=none;spacing=5;spacingTop=-20;whiteSpace=wrap;overflow=hidden;rounded=0;" vertex="1" parent="WIyWlLk6GJQsqaUBKTNV-1">
          <mxGeometry x="220" y="20" width="190" height="70" as="geometry" />
        </mxCell>
        <mxCell id="2MoQ2C0cXwXmk25jdBxl-90" style="edgeStyle=orthogonalEdgeStyle;rounded=0;orthogonalLoop=1;jettySize=auto;html=1;exitX=0.5;exitY=1;exitDx=0;exitDy=0;entryX=0.5;entryY=0;entryDx=0;entryDy=0;" edge="1" parent="WIyWlLk6GJQsqaUBKTNV-1" source="2MoQ2C0cXwXmk25jdBxl-89" target="2MoQ2C0cXwXmk25jdBxl-75">
          <mxGeometry relative="1" as="geometry" />
        </mxCell>
        <mxCell id="2MoQ2C0cXwXmk25jdBxl-89" value="&lt;h1&gt;bayar full&lt;/h1&gt;&lt;p&gt;bayar langsung semua&lt;/p&gt;" style="text;html=1;strokeColor=none;fillColor=none;spacing=5;spacingTop=-20;whiteSpace=wrap;overflow=hidden;rounded=0;" vertex="1" parent="WIyWlLk6GJQsqaUBKTNV-1">
          <mxGeometry x="610" y="20" width="190" height="70" as="geometry" />
        </mxCell>
      </root>
    </mxGraphModel>
  </diagram>
</mxfile>
